<svg width="180" height="40" viewBox="0 0 180 40" fill="none" xmlns="http://www.w3.org/2000/svg">
<rect x="0.824707" width="39.7251" height="39.7251" rx="7.44846" fill="white"/>
<path d="M31.1473 13.8625C30.3773 14.2125 29.5473 14.4425 28.6873 14.5525C29.5673 14.0225 30.2473 13.1825 30.5673 12.1725C29.7373 12.6725 28.8173 13.0225 27.8473 13.2225C27.0573 12.3625 25.9473 11.8625 24.6873 11.8625C22.3373 11.8625 20.4173 13.7825 20.4173 16.1525C20.4173 16.4925 20.4573 16.8225 20.5273 17.1325C16.9673 16.9525 13.7973 15.2425 11.6873 12.6525C11.3173 13.2825 11.1073 14.0225 11.1073 14.8025C11.1073 16.2925 11.8573 17.6125 13.0173 18.3625C12.3073 18.3625 11.6473 18.1625 11.0673 17.8625V17.8925C11.0673 19.9725 12.5473 21.7125 14.5073 22.1025C13.878 22.2748 13.2174 22.2987 12.5773 22.1725C12.8489 23.025 13.3808 23.771 14.0983 24.3055C14.8158 24.84 15.6827 25.1362 16.5773 25.1525C15.0609 26.353 13.1813 27.0019 11.2473 26.9925C10.9073 26.9925 10.5673 26.9725 10.2273 26.9325C12.1273 28.1525 14.3873 28.8625 16.8073 28.8625C24.6873 28.8625 29.0173 22.3225 29.0173 16.6525C29.0173 16.4625 29.0173 16.2825 29.0073 16.0925C29.8473 15.4925 30.5673 14.7325 31.1473 13.8625Z" fill="black"/>
<rect x="70.5498" width="39.7251" height="39.7251" rx="7.44846" fill="white"/>
<path d="M85.3524 12.8626C85.3521 13.393 85.1411 13.9016 84.7659 14.2765C84.3906 14.6514 83.8818 14.8618 83.3514 14.8616C82.8209 14.8613 82.3123 14.6503 81.9374 14.2751C81.5626 13.8998 81.3521 13.391 81.3524 12.8606C81.3526 12.3301 81.5636 11.8215 81.9388 11.4467C82.3141 11.0718 82.8229 10.8613 83.3534 10.8616C83.8838 10.8618 84.3924 11.0728 84.7673 11.4481C85.1422 11.8233 85.3526 12.3321 85.3524 12.8626ZM85.4124 16.3426H81.4124V28.8626H85.4124V16.3426ZM91.7324 16.3426H87.7524V28.8626H91.6924V22.2926C91.6924 18.6326 96.4624 18.2926 96.4624 22.2926V28.8626H100.412V20.9326C100.412 14.7626 93.3524 14.9926 91.6924 18.0226L91.7324 16.3426Z" fill="black"/>
<rect x="140.275" width="39.7251" height="39.7251" rx="7.44846" fill="white"/>
<path d="M162.137 21.3625H164.637L165.637 17.3625H162.137V15.3625C162.137 14.3325 162.137 13.3625 164.137 13.3625H165.637V10.0025C165.311 9.95955 164.08 9.86255 162.78 9.86255C160.065 9.86255 158.137 11.5195 158.137 14.5625V17.3625H155.137V21.3625H158.137V29.8625H162.137V21.3625Z" fill="black"/>
</svg>
